<?xml version="1.0" encoding="utf-8"?>
<!-- Generator: $$$/GeneralStr/196=Adobe Illustrator 27.6.0, SVG Export Plug-In . SVG Version: 6.00 Build 0)  -->
<svg version="1.1" id="Calque_1" xmlns="http://www.w3.org/2000/svg" xmlns:xlink="http://www.w3.org/1999/xlink" x="0px" y="0px"
	 viewBox="0 0 793.2 184.2" style="enable-background:new 0 0 793.2 184.2;" xml:space="preserve">
<g>
	<path d="M103.6,14.7c0-4-0.2-7.6-7.4-7.6V6c4.8,0,6.4,0.4,9.8,0.4c3.4,0,5-0.4,9.8-0.4v1.1c-7.2,0-7.4,3.6-7.4,7.6v30.6
		c0,4,0.1,7.2,7.3,7.2h1c15.9,0,17.7-5.8,20.2-17.3c0.1,0,0.1,0,0.2,0l0.7,0.2h0.2L135.1,54h-19.4c-4.9,0-6.2-0.4-9.7-0.4
		c-3.4,0-5,0.4-9.8,0.4v-1.1c7.2,0,7.4-3.7,7.4-7.7V14.7z"/>
	<path d="M140.2,52.9c7.2,0,8-3,9.1-6.8l9.2-32.3c1.1-3.7,1.4-6.7-4.7-6.7V6c4.8,0,6.8,0.6,10.3,0.6S171.7,6,176.5,6v1.1
		c-6.1,0-5.5,2.9-4.6,6.7l7.7,32.3c0.9,3.8,1.8,6.8,9,6.8V54c-4.8,0-6.2-0.4-9.7-0.4c-3.4,0-5.5,0.4-10.3,0.4v-1.1
		c7.2,0,7-3,6.1-6.8l-3.1-13h-16.6l-3.7,13c-1.1,3.8-1.4,6.8,5.8,6.8V54c-4.8,0-5.5-0.4-8.9-0.4S145,54,140.2,54V52.9z M163.3,8.4
		c-0.5,0-1,0-1.1,0.4l-6.4,22.5h15.6L166,8.8c-0.1-0.4-0.7-0.4-1.1-0.4H163.3z"/>
	<path d="M252.2,53.1c-4.3,0.9-8.6,1.3-13,1.3c-14.9,0-26-5.9-26-24.8c0-13.6,10.6-24.1,24.8-24.1c4.9,0,10.4,0.9,15.2,3.4l0.9,12.2
		l-1.1,0.1c-1.1-8.2-7.1-14-14.6-14c-9.2,0-19.2,5.1-19.2,22.4c0,17.2,9.5,23.1,19.1,23.1c10.4,0,15.2-10.1,16.6-15.1l1.2,0.3
		L252.2,53.1z"/>
	<path d="M261.1,52.9c7.2,0,8-3,9.1-6.8l9.2-32.3c1.1-3.7,1.4-6.7-4.7-6.7V6c4.8,0,6.8,0.6,10.3,0.6S292.7,6,297.5,6v1.1
		c-6.1,0-5.5,2.9-4.6,6.7l7.7,32.3c0.9,3.8,1.8,6.8,9,6.8V54c-4.8,0-6.2-0.4-9.7-0.4c-3.4,0-5.5,0.4-10.3,0.4v-1.1
		c7.2,0,7-3,6.1-6.8l-3.1-13h-16.6l-3.7,13c-1.1,3.8-1.4,6.8,5.8,6.8V54c-4.8,0-5.5-0.4-8.9-0.4s-3.4,0.4-8.2,0.4V52.9z M284.2,8.4
		c-0.5,0-1,0-1.1,0.4l-6.4,22.5h15.6l-5.3-22.5c-0.1-0.4-0.7-0.4-1.1-0.4H284.2z"/>
	<path d="M364.1,55.1l-1.6,0.8l-37.8-42.1v31.4c0,4,0.3,7.6,7.5,7.6V54c-4.8,0-5.1-0.4-8.6-0.4c-3.4,0-3.8,0.4-8.6,0.4v-1.1
		c7.2,0,7.5-3.6,7.5-7.6V14.8c0-3.9-0.3-7.6-7.5-7.6V6c3.1,0,2.8,0.3,5.7,0.3c1.2,0,3.1-0.2,3.4-0.3l37.8,42V14.7
		c0-4-0.3-7.6-7.5-7.6V6c4.8,0,5.2,0.4,8.6,0.4s3.4-0.4,8.3-0.4v1.1c-7.2,0-7.2,3.6-7.2,7.6V55.1z"/>
	<path d="M389.6,8h-2.2c-5.8,0-8.3,2.5-9.9,9.4c-0.1-0.1-1.1-0.3-1.1-0.3c1.3-6.3,2.1-9.9,0.8-14l1.1-0.5L380,6
		c0.7,0.1,7,0.4,19.6,0.4c12.7,0,19-0.4,19.7-0.4l1.7-3.4l1.1,0.5c-1.3,4.1-0.5,7.7,0.8,14c-0.1,0-1,0.2-1.1,0.3
		c-1.6-6.9-4.1-9.4-9.9-9.4h-2.2c-4.9,0.1-7.7,1.4-7.7,6.7v30.6c0,4,0.3,7.6,8.6,7.6V54c-5.9,0-7.6-0.4-11-0.4
		c-3.5,0-5,0.4-10.9,0.4v-1.1c8.3,0,8.6-3.5,8.6-7.6V14.7C397.3,9.4,394.5,8.1,389.6,8z"/>
	<path d="M423.2,52.9c7.2,0,8-3,9.1-6.8l9.2-32.3c1.1-3.7,1.4-6.7-4.7-6.7V6c4.8,0,6.8,0.6,10.3,0.6S454.7,6,459.5,6v1.1
		c-6.1,0-5.5,2.9-4.6,6.7l7.7,32.3c0.9,3.8,1.8,6.8,9,6.8V54c-4.8,0-6.2-0.4-9.7-0.4c-3.4,0-5.5,0.4-10.3,0.4v-1.1
		c7.2,0,7-3,6.1-6.8l-3.1-13h-16.6l-3.7,13c-1.1,3.8-1.4,6.8,5.8,6.8V54c-4.8,0-5.5-0.4-8.9-0.4S428,54,423.2,54V52.9z M446.3,8.4
		c-0.5,0-1,0-1.1,0.4l-6.4,22.5h15.6L449,8.8c-0.1-0.4-0.7-0.4-1.1-0.4H446.3z"/>
	<path d="M484.9,8h-2.2c-5.8,0-8.3,2.5-9.9,9.4c-0.1-0.1-1.1-0.3-1.1-0.3c1.3-6.3,2.1-9.9,0.8-14l1.1-0.5l1.7,3.4
		c0.7,0.1,7,0.4,19.6,0.4c12.7,0,19-0.4,19.7-0.4l1.7-3.4l1.1,0.5c-1.3,4.1-0.5,7.7,0.8,14c-0.1,0-1,0.2-1.1,0.3
		c-1.6-6.9-4.1-9.4-9.9-9.4H505c-4.9,0.1-7.7,1.4-7.7,6.7v30.6c0,4,0.3,7.6,8.6,7.6V54c-5.9,0-7.6-0.4-11-0.4c-3.5,0-5,0.4-10.9,0.4
		v-1.1c8.3,0,8.6-3.5,8.6-7.6V14.7C492.5,9.4,489.8,8.1,484.9,8z"/>
	<path d="M563.8,53.1c-4.3,0.9-8.6,1.3-13,1.3c-14.9,0-26-5.9-26-24.8c0-13.6,10.6-24.1,24.8-24.1c4.9,0,10.4,0.9,15.2,3.4l0.9,12.2
		l-1.1,0.1c-1.1-8.2-7.1-14-14.6-14c-9.1,0-19,5-19.2,21.8h17.8c6.2,0,7.7-1.6,7.7-8.7h1.3c0,4.8-0.7,6.2-0.7,9.5
		c0,3.4,0.7,4.8,0.7,9.7h-1.3c0-7.2-1.4-8.7-7.7-8.7h-17.8c0.5,16.2,9.8,21.8,19.1,21.8c10.4,0,15.2-10.1,16.6-15.1l1.2,0.3
		L563.8,53.1z"/>
	<path d="M639.6,28.6c0,17.9-12.6,25.4-26.1,25.4h-1.3c-4.8,0-6.2-0.4-9.6-0.4c-3.4,0-5,0.4-9.8,0.4v-1.1c7.2,0,7.5-3.6,7.5-7.6
		V14.8c0-4-0.3-7.6-7.5-7.6V6c4.8,0,6.5,0.4,9.8,0.4c3.4,0,6.7-0.4,11.5-0.4C627.4,6,639.6,13.8,639.6,28.6z M612.2,7.7
		c-7.2,0-7.2,3-7.2,7v30.6c0,4,0,7,7.2,7h1.1c13,0,20.3-4.8,20.3-23.8c0-18.4-13.9-20.9-21.1-20.9H612.2z"/>
	<path d="M686,44.6h-0.3c-2.7,6.4-8,10.1-14.6,10.1c-9.4,0-19.1-3.7-19.1-16.9V14.7c0-4-0.3-7.6-7.5-7.6V6c4.8,0,6.5,0.4,9.9,0.4
		c3.4,0,5-0.4,9.8-0.4v1.1c-7.2,0-7.5,3.6-7.5,7.6v23.1c0,9.7,5.8,14.4,14.4,14.4c8,0,14.9-5,14.9-17.9V14.7c0-4-0.2-7.6-7.4-7.6V6
		c4.8,0,6.4,0.4,9.8,0.4s5-0.4,9.8-0.4v1.1c-7.2,0-7.5,3.6-7.5,7.6v30.6c0,4,0.3,7.6,7.5,7.6V54c-3.4,0-5.2-0.4-8.1-0.4
		c-1.9,0-3.2,0.4-4.9,0.4v-0.9c1-1.4,0.8-4.8,0.8-7.8V44.6z"/>
	<path d="M68.6,85v-1c8,0,7.7,0.7,13.4,0.7c5.7,0,5.4-0.7,13.4-0.7v1c-12,0-12.5,3.8-12.5,13.5v67.4l-0.9,0.8L17.3,90.3v59.2
		c0,9.7,0.5,13.5,12.5,13.5v1c-8,0-7.7-0.7-13.4-0.7S11,164,3,164v-1c12,0,12.5-3.8,12.5-13.5V98.6C15.5,89,14,85,3,85v-1
		c5.1,0,4.7,0.5,9.5,0.5c1.9,0,4.5-0.4,4.8-0.5l63.8,75.3V98.5C81.1,88.8,80.6,85,68.6,85z"/>
	<path d="M172.3,98.5c0-9.6-0.4-13.5-12.4-13.5v-1c8,0,8.6,0.7,14.3,0.7c5.7,0,6.4-0.7,14.4-0.7v1c-12,0-12.6,3.9-12.6,13.5v51.8
		c0,7.7,1.9,12.6,12.6,12.6v1.1c-5.9,0-10.3-0.7-12.5-0.6c-2.4,0.1-4.3,0.6-6.2,0.6v-0.8c2.4-0.8,2.4-5.4,2.4-13.7V146l-0.4-0.2
		c-3.5,13-12.7,20.2-25.5,20.2c-15.8,0-30-6.3-30-28.4V98.5c0-9.6-0.5-13.5-12.5-13.5v-1c8,0,8.6,0.7,14.3,0.7s6.4-0.7,14.4-0.7v1
		c-12,0-12.5,3.9-12.5,13.5v39.7c0,17.9,10.3,25.5,26.3,25.5c17.6,0,25.9-12.6,25.9-32.8V98.5z"/>
	<path d="M255.2,165.4l-0.7,0.5l-18.8-78.4c-0.2-0.7-0.5-1.1-1.5-1.1h-0.8c-0.9,0-1.4,0.3-1.6,1.1L214,151.9c-2,7.4-2.3,11,9.7,11
		v1.1c-8,0-7.1-0.6-12.8-0.6s-4.8,0.6-12.8,0.6v-1.1c12,0,12.2-4.8,13.9-11L227.2,97c2.3-8.2,2.9-12-7.2-12v-1c8,0,7.9,1,13.6,1
		c5.7,0,8.2-1,16.3-1v1c-10.2,0-9.8,3.9-7.9,12l14.1,58.7L272.8,97c2.3-8.1,2.9-12-7.2-12v-1c8,0,7.9,1,13.6,1s8.2-1,16.3-1v1
		c-10.2,0-9.7,3.9-7.9,12l12.3,54.9c1.4,6.2,2.4,11,14.4,11v1.1c-8,0-7.6-0.7-13.4-0.7c-5.7,0-6.4,0.7-14.4,0.7v-1.1
		c12,0,10.7-4.7,9.3-11l-14.4-64.4c-0.2-0.7-0.5-1.1-1.5-1.1H279c-0.9,0-1.4,0.3-1.6,1.1L255.2,165.4z"/>
	<path d="M390.9,157.1c-7.6,5.7-16.6,7.5-24,7.5c-22.9,0-42.1-10.3-42.1-41.3c0-22.3,16.5-40.1,40.1-40.1c11.6,0,18.7,4.5,26.2,9
		l1.4,15.9l-0.8,0.1c-1.9-14.9-13.7-23.8-26.1-23.8c-16.3,0-36.2,10.5-36.2,38.8h38.2c9.3,0,11.6-3.4,11.6-15.4h1.2
		c0,8.1-1.2,10.4-1.2,16c0,5.7,1.2,8,1.2,16.1h-1.2c0-12-2.3-15.2-11.6-15.2h-38.2c0.6,27.7,19.5,38.6,36.1,38.6
		c20.1,0,26.4-13.5,29.9-26.6l0.9,0.3L390.9,157.1z M365.6,67.8h4.4l-12.6,8.7h-1.5L365.6,67.8z"/>
	<path d="M466.9,103.5c0,12.5-10.4,18.4-23.1,19.8c5,4,10.4,7.8,11.1,8.3c6.2,19.4,18.1,34.9,28.2,42.7l-0.5,0.7
		c-6.3-4.2-12.1-8.4-18.6-10.5c-2.9-11-9.5-24.7-16.5-33.9l-5.5-7.2c-1.4,0.1-2.8,0.2-4.2,0.2h-13.9v26.1c0,9.6,0.5,13.3,12.6,13.3
		v1c-8,0-8.9-0.6-14.6-0.6S415,164,407,164v-1c12,0,13-2.7,13-12.4V96.7c0-6.6,0-11.7-11-11.7v-1c7,0,8.7,0.7,14.4,0.7s8-1.2,16-1.2
		C450.7,83.5,466.9,86.6,466.9,103.5z M437.8,122c14.3,0,24.4-7.9,24.4-18.5c0-12.8-10.8-18.6-22.8-18.6s-15.5,2.3-15.5,12.6V122
		H437.8z"/>
	<path d="M505.4,149.5c0,9.6,0.5,13.5,12.5,13.5v1c-8,0-8.7-0.7-14.4-0.7c-5.7,0-6.4,0.7-14.4,0.7v-1c12,0,12.5-3.9,12.5-13.5v-51
		c0-9.6-0.5-13.5-12.5-13.5v-1c8,0,8.7,0.7,14.4,0.7c5.7,0,6.4-0.7,14.4-0.7v1c-12,0-12.5,3.9-12.5,13.5V149.5z"/>
	<path d="M570.3,165.2c18,11.2,38.7,10.2,48.4,4.6l0.5,0.8l-15.7,7.9c-21.7,1.3-27.5-11.4-40-13.9c-21.5-3.5-34.1-21-34.1-40.7
		c0-19,15.8-41.1,42.2-41.1c26.3,0,42.2,22.1,42.2,41.1c0,22.1-15.8,41.3-42.2,41.3C571.2,165.2,570.7,165.2,570.3,165.2z
		 M608.8,123.9c0-24.3-17.2-39.7-37.2-39.7c-20,0-37.1,15.4-37.1,39.7c0,24.6,17.1,39.9,37.1,39.9
		C591.6,163.8,608.8,148.5,608.8,123.9z"/>
	<path d="M690.8,98.5c0-9.6-0.4-13.5-12.4-13.5v-1c8,0,8.6,0.7,14.3,0.7c5.7,0,6.4-0.7,14.4-0.7v1c-12,0-12.6,3.9-12.6,13.5v51.8
		c0,7.7,1.9,12.6,12.6,12.6v1.1c-5.9,0-10.3-0.7-12.5-0.6c-2.4,0.1-4.3,0.6-6.2,0.6v-0.8c2.4-0.8,2.4-5.4,2.4-13.7V146l-0.4-0.2
		c-3.5,13-12.7,20.2-25.5,20.2c-15.8,0-30-6.3-30-28.4V98.5c0-9.6-0.5-13.5-12.5-13.5v-1c8,0,8.6,0.7,14.3,0.7s6.4-0.7,14.4-0.7v1
		c-12,0-12.5,3.9-12.5,13.5v39.7c0,17.9,10.3,25.5,26.3,25.5c17.6,0,25.9-12.6,25.9-32.8V98.5z"/>
	<path d="M785.7,157.1c-7.6,5.7-16.6,7.5-24,7.5c-22.9,0-42.1-10.3-42.1-41.3c0-22.3,16.5-40.1,40.1-40.1c11.6,0,18.7,4.5,26.2,9
		l1.4,15.9l-0.8,0.1c-1.9-14.9-13.7-23.8-26.1-23.8c-16.3,0-36.2,10.5-36.2,38.8h38.2c9.3,0,11.6-3.4,11.6-15.4h1.2
		c0,8.1-1.2,10.4-1.2,16c0,5.7,1.2,8,1.2,16.1H774c0-12-2.3-15.2-11.6-15.2h-38.2c0.6,27.7,19.5,38.6,36.1,38.6
		c20.1,0,26.4-13.5,29.9-26.6l0.9,0.3L785.7,157.1z"/>
</g>
</svg>
