<?xml version="1.0" encoding="utf-8"?>
<!-- Generator: $$$/GeneralStr/196=Adobe Illustrator 27.6.0, SVG Export Plug-In . SVG Version: 6.00 Build 0)  -->
<svg version="1.1" id="Calque_1" xmlns="http://www.w3.org/2000/svg" xmlns:xlink="http://www.w3.org/1999/xlink" x="0px" y="0px"
	 viewBox="0 0 477.4 181.2" style="enable-background:new 0 0 477.4 181.2;" xml:space="preserve">
<g>
	<path d="M0.1,77.6V36.8c0-0.4,0.2-0.6,0.6-0.6h3.4c0.4,0,0.6,0.2,0.6,0.6v36.6c0,0.4,0.2,0.6,0.6,0.6h12.7c0.4,0,0.6,0.2,0.6,0.6v3
		c0,0.4-0.2,0.6-0.6,0.6H0.7C0.3,78.2,0.1,78,0.1,77.6z"/>
	<path d="M22.7,77.5l5.8-40.7c0.1-0.4,0.3-0.6,0.7-0.6h8c0.4,0,0.6,0.2,0.7,0.6l5.8,40.7c0.1,0.4-0.2,0.7-0.5,0.7h-3.2
		c-0.4,0-0.5-0.1-0.6-0.5l-1-6.9c-0.1-0.5-0.3-0.6-0.7-0.6h-8.9c-0.4,0-0.6,0.1-0.7,0.6l-1,6.9c-0.1,0.4-0.2,0.5-0.6,0.5h-3.2
		C23,78.2,22.7,77.9,22.7,77.5z M37.1,65.9c0.4,0,0.5-0.2,0.5-0.6l-3.2-24c-0.1-0.4-0.2-0.5-0.5-0.5h-1.1c-0.4,0-0.5,0.1-0.5,0.5
		l-3.3,24c-0.1,0.4,0.2,0.6,0.5,0.6H37.1z"/>
	<path d="M68.7,60.1V19.6C68.7,8.2,76.8,0,88.2,0c11,0,19,7.7,19.6,18.5c0,0.7-0.4,1.1-1.1,1.1h-6.1c-0.7,0-1.1-0.3-1.1-1.1
		c-0.4-6.6-5-10.7-11.3-10.7c-6.7,0-11.2,4.5-11.2,11.8v40.5c0,7.1,4.5,11.7,11.2,11.7c6.4,0,10.9-4.1,11.3-10.6
		c0-0.8,0.4-1.1,1.1-1.1h6.1c0.7,0,1.1,0.4,1.1,1.1c-0.6,10.7-8.6,18.4-19.6,18.4C76.8,79.5,68.7,71.3,68.7,60.1z"/>
	<path d="M116.5,77l10.6-74.7c0.1-0.8,0.6-1.1,1.2-1.1H143c0.7,0,1.1,0.3,1.2,1.1L154.9,77c0.1,0.7-0.3,1.2-1,1.2H148
		c-0.7,0-1-0.2-1.1-1l-1.8-12.6c-0.1-0.9-0.5-1.1-1.2-1.1h-16.3c-0.7,0-1.1,0.2-1.2,1.1l-1.8,12.6c-0.1,0.8-0.4,1-1.1,1h-5.9
		C117,78.2,116.4,77.7,116.5,77z M142.8,55.5c0.7,0,1-0.4,0.9-1.1l-5.9-44c-0.1-0.7-0.3-0.9-1-0.9h-2c-0.7,0-0.9,0.2-1,0.9l-6,44
		c-0.1,0.7,0.3,1.1,1,1.1H142.8z"/>
	<path d="M167,77.1V2.3c0-0.7,0.4-1.1,1.1-1.1h5.9c0.4,0,1,0.2,1.4,0.4l20.6,12.1c0.7,0.3,1.3,0.1,1.3-0.7V2.3
		c0-0.7,0.4-1.1,1.1-1.1h5.6c0.7,0,1.1,0.4,1.1,1.1v74.8c0,0.7-0.4,1.1-1.1,1.1h-5.6c-0.7,0-1.1-0.4-1.1-1.1V24.4
		c0-0.4-0.1-0.9-0.5-1.1l-20.7-12.1c-0.7-0.3-1.3,0-1.3,0.7v65.2c0,0.7-0.4,1.1-1.1,1.1h-5.6C167.5,78.2,167,77.8,167,77.1z"/>
	<path d="M234.8,77.1V10c0-0.7-0.4-1.1-1.1-1.1h-13.1c-0.7,0-1.1-0.4-1.1-1.1V2.3c0-0.7,0.4-1.1,1.1-1.1h36.6c0.7,0,1.1,0.4,1.1,1.1
		v5.5c0,0.7-0.4,1.1-1.1,1.1h-13.1c-0.7,0-1.1,0.4-1.1,1.1v67.1c0,0.7-0.4,1.1-1.1,1.1h-6C235.2,78.2,234.8,77.8,234.8,77.1z"/>
	<path d="M263.8,77l10.6-74.7c0.1-0.8,0.6-1.1,1.2-1.1h14.7c0.7,0,1.1,0.3,1.2,1.1L302.2,77c0.1,0.7-0.3,1.2-1,1.2h-5.9
		c-0.7,0-1-0.2-1.1-1l-1.8-12.6c-0.1-0.9-0.5-1.1-1.2-1.1h-16.3c-0.7,0-1.1,0.2-1.2,1.1L272,77.2c-0.1,0.8-0.4,1-1.1,1h-5.9
		C264.3,78.2,263.7,77.7,263.8,77z M290.1,55.5c0.7,0,1-0.4,0.9-1.1l-5.9-44c-0.1-0.7-0.3-0.9-1-0.9h-2c-0.7,0-0.9,0.2-1,0.9l-6,44
		c-0.1,0.7,0.3,1.1,1,1.1H290.1z"/>
	<path d="M323,77.1V10c0-0.7-0.4-1.1-1.1-1.1h-13.1c-0.7,0-1.1-0.4-1.1-1.1V2.3c0-0.7,0.4-1.1,1.1-1.1h36.6c0.7,0,1.1,0.4,1.1,1.1
		v5.5c0,0.7-0.4,1.1-1.1,1.1h-13.1c-0.7,0-1.1,0.4-1.1,1.1v67.1c0,0.7-0.4,1.1-1.1,1.1h-6C323.4,78.2,323,77.8,323,77.1z"/>
	<path d="M360.8,77.1V2.3c0-0.7,0.4-1.1,1.1-1.1h33.8c0.7,0,1.1,0.4,1.1,1.1v5.6c0,0.7-0.4,1.1-1.1,1.1h-25.5
		c-0.7,0-1.1,0.4-1.1,1.3v16.9c0,0.7,0.4,1.1,1.1,1.1h25.5c0.7,0,1.1,0.4,1.1,1.1V35c0,0.7-0.4,1.1-1.1,1.1h-25.5
		c-0.7,0-1.1,0.4-1.1,1.1v32.1c0,0.7,0.4,1.1,1.1,1.1h25.5c0.7,0,1.1,0.4,1.1,1.1v5.6c0,0.7-0.4,1.1-1.1,1.1h-33.8
		C361.3,78.2,360.8,77.8,360.8,77.1z"/>
	<path d="M424.2,77.6V36.8c0-0.4,0.2-0.6,0.6-0.6h5.4c9.7,0,17.3,8.8,17.3,21c0,12.2-7.6,21-17.3,21h-5.4
		C424.5,78.2,424.2,78,424.2,77.6z M430.2,74c7.5,0,12.7-7.6,12.7-16.7c0-9.1-5.2-16.7-12.7-16.7h-0.9c-0.4,0-0.6,0.2-0.6,0.6v32.3
		c0,0.4,0.2,0.6,0.6,0.6H430.2z"/>
	<path d="M453.5,68.3V36.8c0-0.4,0.2-0.6,0.6-0.6h3.3c0.4,0,0.6,0.2,0.6,0.6v31.5c0,3.9,2.7,6.4,6.4,6.4c3.7,0,6.4-2.5,6.4-6.4V36.8
		c0-0.4,0.2-0.6,0.6-0.6h3.3c0.4,0,0.6,0.2,0.6,0.6v31.5c0,6.1-4.7,10.6-10.9,10.6C458.2,78.9,453.5,74.4,453.5,68.3z"/>
</g>
<g>
	<path d="M0,167.4v-80c0-0.7,0.5-1.2,1.2-1.2h6.4c0.5,0,1.1,0.2,1.5,0.5l22,12.9c0.7,0.4,1.4,0.1,1.4-0.7V87.4
		c0-0.7,0.5-1.2,1.2-1.2h6c0.7,0,1.2,0.5,1.2,1.2v80c0,0.7-0.5,1.2-1.2,1.2h-6c-0.7,0-1.2-0.5-1.2-1.2V111c0-0.5-0.1-0.9-0.6-1.2
		L9.8,96.9c-0.7-0.4-1.4,0-1.4,0.7v69.8c0,0.7-0.5,1.2-1.2,1.2h-6C0.5,168.6,0,168.1,0,167.4z"/>
	<path d="M58.5,149.2V87.4c0-0.7,0.5-1.2,1.2-1.2h6.5c0.7,0,1.2,0.5,1.2,1.2v61.8c0,7.6,5.3,12.5,12.5,12.5
		c7.2,0,12.6-4.8,12.6-12.5V87.4c0-0.7,0.5-1.2,1.2-1.2h6.5c0.7,0,1.2,0.5,1.2,1.2v61.8c0,12-9.3,20.8-21.4,20.8
		S58.5,161.2,58.5,149.2z"/>
	<path d="M118.8,167.4v-80c0-0.7,0.5-1.2,1.2-1.2h5.3c0.7,0,1.2,0.4,1.5,0.9l14.7,25.1c0.1,0.2,0.4,0.5,0.7,0.5s0.6-0.2,0.7-0.5
		l14.8-25.1c0.4-0.6,0.8-0.9,1.5-0.9h5.3c0.7,0,1.2,0.5,1.2,1.2v80c0,0.7-0.5,1.2-1.2,1.2h-5.9c-0.7,0-1.2-0.5-1.2-1.2v-61.8
		c0-0.5-0.4-0.8-0.8-0.8s-0.7,0.4-0.8,0.6l-12.5,21.4c-0.2,0.5-0.6,0.7-1.1,0.7c-0.5,0-0.8-0.2-1.1-0.7l-12.6-21.4
		c-0.1-0.2-0.4-0.6-0.8-0.6c-0.5,0-0.8,0.4-0.8,0.8v61.8c0,0.7-0.5,1.2-1.2,1.2H120C119.3,168.6,118.8,168.1,118.8,167.4z"/>
	<path d="M184.6,167.4v-80c0-0.7,0.5-1.2,1.2-1.2h36.1c0.7,0,1.2,0.5,1.2,1.2v6c0,0.7-0.5,1.2-1.2,1.2h-27.3c-0.7,0-1.2,0.5-1.2,1.4
		v18.1c0,0.7,0.5,1.2,1.2,1.2h27.3c0.7,0,1.2,0.5,1.2,1.2v5.9c0,0.7-0.5,1.2-1.2,1.2h-27.3c-0.7,0-1.2,0.5-1.2,1.2V159
		c0,0.7,0.5,1.2,1.2,1.2h27.3c0.7,0,1.2,0.5,1.2,1.2v6c0,0.7-0.5,1.2-1.2,1.2h-36.1C185.1,168.6,184.6,168.1,184.6,167.4z"/>
	<path d="M239.5,167.4V87.5c0-0.7,0.5-1.2,1.2-1.2h10.6c18.4,0,30.4,15.3,30.4,34.2c0,12.1-4.9,22.7-13.2,28.8
		c-0.5,0.4-0.5,0.8-0.2,1.3l8.7,16.4c0.5,0.8,0,1.5-0.8,1.5h-7.8c-0.6,0-1.1-0.4-1.3-0.9l-6.5-12.9c-0.4-0.7-0.9-0.9-1.6-0.8
		c-0.5,0.1-4.8,0.9-7.6,0.9h-1.8c-0.7,0-1.2,0.5-1.2,1.2v11.4c0,0.7-0.5,1.2-1.2,1.2h-6.5C240,168.6,239.5,168.1,239.5,167.4z
		 M251.3,146.6c13.5,0,21.3-11.8,21.3-26c0-14.1-7.8-26-21.3-26h-1.8c-0.7,0-1.2,0.5-1.2,1.2v49.6c0,0.7,0.5,1.2,1.2,1.2H251.3z"/>
	<path d="M294.6,167.4v-80c0-0.7,0.5-1.2,1.2-1.2h6.5c0.7,0,1.2,0.5,1.2,1.2v80c0,0.7-0.5,1.2-1.2,1.2h-6.5
		C295.1,168.6,294.6,168.1,294.6,167.4z"/>
	<path d="M361.7,105.9v43.3c0,10.2-6.5,18.2-15.9,20.2c-0.8,0.2-1.1,0.7-1.1,1.4v8.4c0,0.7-0.5,1.2-1.2,1.2h-5.8
		c-0.7,0-1.2-0.5-1.2-1.2v-8.4c0-0.7-0.2-1.2-1.2-1.4c-9.3-2.2-15.5-10.1-15.5-20.2v-43.3c0-12.1,8.7-20.9,20.8-20.9
		S361.7,93.7,361.7,105.9z M352.8,149.2v-43.3c0-7.8-4.9-12.6-12.1-12.6c-7.2,0-12,4.8-12,12.6v43.3c0,5.5,2.6,9.5,6.6,11.4
		c0.8,0.4,1.3,0,1.3-0.7v-9.5c0-0.7,0.5-1.2,1.2-1.2h5.8c0.7,0,1.2,0.5,1.2,1.2v9.5c0,0.7,0.6,0.9,1.3,0.7
		C350.1,158.9,352.8,154.8,352.8,149.2z"/>
	<path d="M376.9,149.2V87.4c0-0.7,0.5-1.2,1.2-1.2h6.5c0.7,0,1.2,0.5,1.2,1.2v61.8c0,7.6,5.3,12.5,12.5,12.5
		c7.2,0,12.6-4.8,12.6-12.5V87.4c0-0.7,0.5-1.2,1.2-1.2h6.5c0.7,0,1.2,0.5,1.2,1.2v61.8c0,12-9.3,20.8-21.4,20.8
		S376.9,161.2,376.9,149.2z"/>
	<path d="M437.3,167.4v-80c0-0.7,0.5-1.2,1.2-1.2h36.1c0.7,0,1.2,0.5,1.2,1.2v6c0,0.7-0.5,1.2-1.2,1.2h-27.3c-0.7,0-1.2,0.5-1.2,1.4
		v18.1c0,0.7,0.5,1.2,1.2,1.2h27.3c0.7,0,1.2,0.5,1.2,1.2v5.9c0,0.7-0.5,1.2-1.2,1.2h-27.3c-0.7,0-1.2,0.5-1.2,1.2V159
		c0,0.7,0.5,1.2,1.2,1.2h27.3c0.7,0,1.2,0.5,1.2,1.2v6c0,0.7-0.5,1.2-1.2,1.2h-36.1C437.8,168.6,437.3,168.1,437.3,167.4z"/>
</g>
<path d="M218.8,77.7h-5.2c-0.8,0-1.4-0.7-1.1-1.5l5.5-14.6c0.2-0.6,0.7-0.9,1.4-0.9h7.6c1.2,0,1.6,1.2,1.2,2l-8.1,14.2
	C219.9,77.5,219.4,77.7,218.8,77.7z"/>
</svg>
